# Blender 3.5.1
# www.blender.org
mtllib face.mtl
o EntireDisplay
v -64.000000 -3.604313 16.000000
v -64.000000 -1.604313 16.000000
v -64.000000 -3.604313 -16.000000
v -64.000000 -1.604313 -16.000000
v 64.000000 -3.604313 16.000000
v 64.000000 -1.604313 16.000000
v 64.000000 -3.604313 -16.000000
v 64.000000 -1.604313 -16.000000
vn -1.0000 -0.0000 -0.0000
vn -0.0000 -0.0000 -1.0000
vn 1.0000 -0.0000 -0.0000
vn -0.0000 -0.0000 1.0000
vn -0.0000 -1.0000 -0.0000
vn -0.0000 1.0000 -0.0000
vt 0.375000 0.000000
vt 0.375000 1.000000
vt 0.125000 0.750000
vt 0.625000 0.000000
vt 0.625000 1.000000
vt 0.875000 0.750000
vt 0.375000 0.250000
vt 0.125000 0.500000
vt 0.625000 0.250000
vt 0.875000 0.500000
vt 0.375000 0.750000
vt 0.625000 0.750000
vt 0.375000 0.500000
vt 0.625000 0.500000
s 0
f 1/1/1 2/4/1 4/9/1 3/7/1
f 3/7/2 4/9/2 8/14/2 7/13/2
f 7/13/3 8/14/3 6/12/3 5/11/3
f 5/11/4 6/12/4 2/5/4 1/2/4
f 3/8/5 7/13/5 5/11/5 1/3/5
f 8/14/6 4/10/6 2/6/6 6/12/6
o Face.002
v -37.995949 0.000000 3.274037
v -36.124191 0.000000 3.274037
v -37.983391 0.000000 1.798633
v -35.559799 0.000000 1.775116
v -29.852633 0.000000 8.773385
v -29.032728 0.000000 7.422716
v -24.988482 0.000000 8.796680
v -25.472630 0.000000 7.463338
v -21.701628 0.000000 5.744802
v -22.240379 0.000000 4.491522
v 0.000000 0.000000 5.785439
v 0.000000 0.000000 4.503378
v 37.995949 0.000000 3.274037
v 36.124191 0.000000 3.274037
v 37.983391 0.000000 1.798633
v 35.559799 0.000000 1.775116
v 29.852633 0.000000 8.773385
v 29.032728 0.000000 7.422716
v 24.988482 0.000000 8.796680
v 25.472630 0.000000 7.463338
v 21.701628 0.000000 5.744802
v 22.240379 0.000000 4.491522
v -5.870313 0.000000 -14.020231
v -1.394108 0.000000 -12.910638
v -3.726125 0.000000 -12.910638
v -1.394108 0.000000 -14.020231
v 0.000000 0.000000 -12.910638
v 0.000000 0.000000 -14.020231
v -4.148112 0.000000 -9.822220
v -2.754003 0.000000 -9.822220
v 5.870313 0.000000 -14.020231
v 1.394108 0.000000 -12.910638
v 3.726125 0.000000 -12.910638
v 1.394108 0.000000 -14.020231
v 4.148112 0.000000 -9.822220
v 2.754003 0.000000 -9.822220
v -48.934361 0.000000 -8.800249
v -46.565807 0.000000 -11.863915
v -43.720627 0.000000 -6.581172
v -42.286808 0.000000 -7.860081
v -36.073059 0.000000 -11.778232
v -36.779465 0.000000 -8.739791
v -31.058058 0.000000 -9.435775
v -30.529417 0.000000 -7.350914
v -47.443497 0.000000 -6.931028
v -30.549379 0.000000 -8.068058
v -45.188816 0.000000 -10.707196
v -36.820946 0.000000 -10.456566
v -41.893005 0.000000 -13.592562
v -40.113457 0.000000 -8.806328
v -40.682663 0.000000 -11.863184
v 48.934361 0.000000 -8.800249
v 46.565807 0.000000 -11.863915
v 43.720627 0.000000 -6.581172
v 42.286808 0.000000 -7.860081
v 36.073059 0.000000 -11.778232
v 36.779465 0.000000 -8.739791
v 31.058058 0.000000 -9.435775
v 30.529417 0.000000 -7.350914
v 47.443497 0.000000 -6.931028
v 30.549379 0.000000 -8.068058
v 45.188816 0.000000 -10.707196
v 36.820946 0.000000 -10.456566
v 41.893005 0.000000 -13.592562
v 40.113457 0.000000 -8.806328
v 40.682663 0.000000 -11.863184
v -38.862450 0.000000 -14.097112
v -32.431530 0.000000 -11.527998
v -38.611626 0.000000 -14.705564
v -32.180706 0.000000 -12.136451
v 38.862450 0.000000 -14.097112
v 32.431530 0.000000 -11.527998
v 38.611626 0.000000 -14.705564
v 32.180706 0.000000 -12.136451
vn -0.0000 -1.0000 -0.0000
vn -0.0000 1.0000 -0.0000
vt 0.000000 0.000000
vt 0.000000 0.000000
vt 0.000000 0.000000
vt 0.000000 0.000000
vt 0.000000 0.000000
vt 0.000000 0.000000
vt 0.000000 0.000000
vt 0.000000 0.000000
vt 0.000000 0.000000
vt 0.000000 0.000000
vt 0.000000 0.000000
vt 0.000000 0.000000
vt 0.000000 0.000000
vt 0.000000 0.000000
vt 0.000000 0.000000
vt 0.000000 0.000000
vt 0.000000 0.000000
vt 0.000000 0.000000
vt 0.000000 0.000000
vt 0.000000 0.000000
vt 0.000000 0.000000
vt 0.000000 0.000000
vt 1.000000 1.000000
vt 1.000000 0.000000
vt 1.000000 0.000000
vt 1.000000 1.000000
vt 0.500000 0.000000
vt 0.500000 1.000000
vt 1.000000 0.000000
vt 0.500000 0.000000
vt 1.000000 1.000000
vt 1.000000 0.000000
vt 1.000000 0.000000
vt 1.000000 1.000000
vt 1.000000 0.000000
vt 0.500000 0.000000
vt 0.000000 0.000000
vt 0.000000 0.000000
vt 0.000000 0.000000
vt 0.000000 0.000000
vt 0.000000 0.000000
vt 0.000000 0.000000
vt 0.000000 0.000000
vt 0.000000 0.000000
vt 0.000000 0.000000
vt 0.000000 0.000000
vt 0.000000 0.000000
vt 0.000000 0.000000
vt 0.000000 0.000000
vt 0.000000 0.000000
vt 0.000000 0.000000
vt 0.000000 0.000000
vt 0.000000 0.000000
vt 0.000000 0.000000
vt 0.000000 0.000000
vt 0.000000 0.000000
vt 0.000000 0.000000
vt 0.000000 0.000000
vt 0.000000 0.000000
vt 0.000000 0.000000
vt 0.000000 0.000000
vt 0.000000 0.000000
vt 0.000000 0.000000
vt 0.000000 0.000000
vt 0.000000 0.000000
vt 0.000000 0.000000
vt 0.000000 0.000000
vt 1.000000 0.000000
vt 0.000000 1.000000
vt 1.000000 1.000000
vt 0.000000 0.000000
vt 1.000000 0.000000
vt 0.000000 1.000000
vt 1.000000 1.000000
s 0
f 9/15/7 11/17/7 12/18/7 10/16/7
f 10/16/7 12/18/7 14/20/7 13/19/7
f 13/19/7 14/20/7 16/22/7 15/21/7
f 15/21/7 16/22/7 18/24/7 17/23/7
f 19/25/7 17/23/7 18/24/7 20/26/7
f 21/27/7 22/28/7 24/30/7 23/29/7
f 22/28/7 25/31/7 26/32/7 24/30/7
f 25/31/7 27/33/7 28/34/7 26/32/7
f 27/33/7 29/35/7 30/36/7 28/34/7
f 19/25/7 20/26/7 30/36/7 29/35/7
f 35/41/7 32/38/7 34/40/7 36/42/7
f 34/40/7 32/38/7 33/39/7 31/37/7
f 32/38/7 35/41/7 38/44/7 37/43/7
f 35/41/7 36/42/7 42/48/7 40/46/7
f 42/48/7 39/45/7 41/47/7 40/46/7
f 40/46/7 43/49/7 44/50/7 35/41/7
f 53/59/8 55/61/8 46/52/8 45/51/8
f 59/65/8 58/64/8 50/56/8 56/62/8
f 54/60/8 56/62/8 50/56/8 52/58/8
f 51/57/8 49/55/8 56/62/8 54/60/8
f 57/63/8 59/65/8 56/62/8 49/55/8
f 47/53/8 48/54/8 55/61/8 53/59/8
f 46/52/8 55/61/8 59/65/8 57/63/8
f 55/61/8 48/54/8 58/64/8 59/65/8
f 68/74/8 60/66/8 61/67/8 70/76/8
f 74/80/8 71/77/8 65/71/8 73/79/8
f 69/75/8 67/73/8 65/71/8 71/77/8
f 66/72/8 69/75/8 71/77/8 64/70/8
f 72/78/8 64/70/8 71/77/8 74/80/8
f 62/68/8 68/74/8 70/76/8 63/69/8
f 61/67/8 72/78/8 74/80/8 70/76/8
f 70/76/8 74/80/8 73/79/8 63/69/8
f 75/81/8 76/82/8 78/84/8 77/83/8
f 79/85/8 81/87/8 82/88/8 80/86/8
