<svg xmlns="http://www.w3.org/2000/svg" viewBox="0 0 128 32"><defs><style>.cls-1{fill:#231f20;}.cls-2{fill:#fff;}</style></defs><g id="mouth"><polygon class="cls-1" points="64 23 52.088 26 49.088 22 42.088 24 23.703 23.703 23.703 24.703 25.154 24.758 42.099 25.418 48.56 23.44 51.527 27.462 64 24 64 23"/><polygon class="cls-1" points="64 23 75.912 26 78.912 22 85.912 24 104.297 23.703 104.297 24.703 102.846 24.758 85.901 25.418 79.44 23.44 76.473 27.462 64 24 64 23"/></g><g id="eye"><polygon class="cls-1" points="18.874 4.005 22.582 4.78 27 5.308 30.94 5.242 33.907 4.648 34.189 7.754 30.791 9.742 23.522 9.643 18.973 7.962 16.889 6.354 18.089 5.954 18.874 4.005"/><polygon class="cls-1" points="109.126 4.005 105.418 4.78 101 5.308 97.06 5.242 94.093 4.648 93.811 7.754 97.209 9.742 104.478 9.643 109.027 7.962 111.111 6.354 109.911 5.954 109.126 4.005"/></g><g id="nose"><polygon class="cls-1" points="64 0 64 3 63.088 2 60.088 0 64 0"/><polygon class="cls-1" points="64 0 64 3 64.912 2 67.912 0 64 0"/></g><g id="puiple"><polygon class="cls-2" points="27.784 3.247 26.894 2.22 25.987 3.247 25.464 5.298 25.987 7.349 26.894 8.375 27.784 7.349 28.308 5.298 27.784 3.247"/><polygon class="cls-2" points="100.216 3.247 101.106 2.22 102.013 3.247 102.536 5.298 102.013 7.349 101.106 8.375 100.216 7.349 99.692 5.298 100.216 3.247"/></g></svg>