<svg xmlns="http://www.w3.org/2000/svg" viewBox="0 0 64 32"><defs><style>.cls-1{fill:#231f20;}.cls-2{fill:#fff;}</style></defs><g id="mouth"><polygon class="cls-1" points="63.999 23 52 26 49 22 42 24 24 17 24 18 26 19 42 25 48 23 51 27 64 24 63.999 23"/></g><g id="eye"><polygon class="cls-1" points="19.4 3.5 23.9 1.8 29.5 2 32.8 3.6 34 7.3 34.2 9.6 31.4 9.3 24 9 18.6 8.6 16.9 8.2 18.1 7.8 19.4 3.5"/></g><g id="nose"><polygon class="cls-1" points="64.008 0 64.008 3 63 2 60 0 64.008 0"/></g><g id="puiple"><polygon class="cls-2" points="27.696 3.247 26.807 2.22 25.899 3.247 25.376 5.298 25.899 7.349 26.807 8.375 27.696 7.349 28.22 5.298 27.696 3.247"/></g></svg>