<svg xmlns="http://www.w3.org/2000/svg" viewBox="0 0 128 32"><defs><style>.cls-1{fill:#231f20;}.cls-2{fill:#fff;}</style></defs><g id="mouth"><polygon class="cls-1" points="64 23 52.088 26 49.088 22 42.088 24 24.088 17 24.088 18 26.088 19 42.088 25 48.088 23 51.088 27 64 24 64 23"/><polygon class="cls-1" points="64 23 75.912 26 78.912 22 85.912 24 103.912 17 103.912 18 101.912 19 85.912 25 79.912 23 76.912 27 64 24 64 23"/></g><g id="eye"><polygon class="cls-1" points="19.488 3.5 23.988 1.8 29.588 2 32.888 3.6 34.088 7.3 34.288 9.6 31.488 9.3 24.088 9 18.688 8.6 16.988 8.2 18.188 7.8 19.488 3.5"/><polygon class="cls-1" points="108.512 3.5 104.012 1.8 98.412 2 95.112 3.6 93.912 7.3 93.712 9.6 96.512 9.3 103.912 9 109.312 8.6 111.012 8.2 109.812 7.8 108.512 3.5"/></g><g id="nose"><polygon class="cls-1" points="64 0 64 3 63.088 2 60.088 0 64 0"/><polygon class="cls-1" points="64 0 64 3 64.912 2 67.912 0 64 0"/></g><g id="puiple"><polygon class="cls-2" points="27.784 3.247 26.894 2.22 25.987 3.247 25.464 5.298 25.987 7.349 26.894 8.375 27.784 7.349 28.308 5.298 27.784 3.247"/><polygon class="cls-2" points="100.216 3.247 101.106 2.22 102.013 3.247 102.536 5.298 102.013 7.349 101.106 8.375 100.216 7.349 99.692 5.298 100.216 3.247"/></g></svg>