<svg xmlns="http://www.w3.org/2000/svg" viewBox="0 0 47.10824 27"><defs><style>.cls-1{fill:#231f20;}.cls-2{fill:#fff;}</style></defs><g id="mouth"><polygon class="cls-1" points="47.099 23 35.1 26 32.1 22 25.1 24 7.1 17 7.1 18 9.1 19 25.1 25 31.1 23 34.1 27 47.1 24 47.099 23"/></g><g id="eye"><polygon class="cls-1" points="2.5 3.5 7 1.8 12.6 2 15.9 3.6 17.1 7.3 17.3 9.6 14.5 9.3 7.1 9 1.7 8.6 0 8.2 1.2 7.8 2.5 3.5"/></g><g id="nose"><polygon class="cls-1" points="47.108 0 47.108 3 46.1 2 43.1 0 47.108 0"/></g><g id="puiple"><polygon class="cls-2" points="10.796 3.247 9.907 2.22 8.999 3.247 8.476 5.298 8.999 7.349 9.907 8.375 10.796 7.349 11.32 5.298 10.796 3.247"/></g></svg>