<svg xmlns="http://www.w3.org/2000/svg" viewBox="0 0 128 32"><defs><style>.cls-1{fill:#231f20;}.cls-2{fill:#fff;}</style></defs><g id="mouth"><polygon class="cls-1" points="63.999 23 52 26 49 22 42 24 24.423 21.725 24.423 22.725 26.5 23.308 42 25 48 23 51 27 64 24 63.999 23"/><polygon class="cls-1" points="64.018 23 76.016 26 79.016 22 86.016 24 104.016 17 104.016 18 102.016 19 86.016 25 80.016 23 77.016 27 64.016 24 64.018 23"/></g><g id="eye"><polygon class="cls-1" points="19.676 3.973 25.462 0.511 28.577 0.462 30.852 0.709 33.918 5.011 34.2 9.6 31.4 9.3 24 9 18.6 8.6 16.9 8.2 18.1 7.8 19.676 3.973"/><polygon class="cls-1" points="108.538 4.714 103.791 3.33 99.571 3.396 96.571 5.703 94.099 5.011 93.816 9.6 96.616 9.3 104.016 9 109.416 8.6 111.116 8.2 109.916 7.8 108.538 4.714"/></g><g id="nose"><polygon class="cls-1" points="64.008 0 64.008 3 63 2 60 0 64.008 0"/><polygon class="cls-1" points="64.008 0 64.008 3 65.016 2 68.016 0 64.008 0"/></g><g id="puiple"><polygon class="cls-2" points="27.696 3.247 26.807 2.22 25.899 3.247 25.376 5.298 25.899 7.349 26.807 8.375 27.696 7.349 28.22 5.298 27.696 3.247"/><polygon class="cls-2" points="100.32 3.247 101.21 2.22 102.117 3.247 102.641 5.298 102.117 7.349 101.21 8.375 100.32 7.349 99.797 5.298 100.32 3.247"/></g></svg>