<svg xmlns="http://www.w3.org/2000/svg" viewBox="0 0 128 32"><defs><style>.cls-1{fill:#231f20;}.cls-2{fill:#fff;}</style></defs><g id="mouth"><polygon class="cls-1" points="63.999 23 52 26 49 22 42.027 22.716 23.879 27.066 23.945 28.319 29.665 26.769 42.027 23.716 48 23 51 27 64 24 63.999 23"/><polygon class="cls-1" points="64.018 23 76.016 26 79.016 22 85.989 22.716 104.137 27.066 104.071 28.319 98.352 26.769 85.989 23.716 80.016 23 77.016 27 64.016 24 64.018 23"/></g><g id="eye"><polygon class="cls-1" points="18.736 5.901 21.802 5.505 28.824 4.22 33.275 2.44 35.154 6.56 34.2 9.6 31.4 9.3 24.654 9.033 23.422 7.941 20.838 6.952 19.07 6.841 18.736 5.901"/><polygon class="cls-1" points="109.28 5.901 106.214 5.505 99.192 4.22 94.742 2.44 92.863 6.56 93.816 9.6 96.616 9.3 103.363 9.033 104.595 7.941 107.179 6.952 108.946 6.841 109.28 5.901"/></g><g id="nose"><polygon class="cls-1" points="64.008 0 64.008 3 63 2 60 0 64.008 0"/><polygon class="cls-1" points="64.008 0 64.008 3 65.016 2 68.016 0 64.008 0"/></g><g id="puiple"><polygon class="cls-2" points="27.696 3.247 26.807 2.22 25.899 3.247 25.376 5.298 25.899 7.349 26.807 8.375 27.696 7.349 28.22 5.298 27.696 3.247"/><polygon class="cls-2" points="100.32 3.247 101.21 2.22 102.117 3.247 102.641 5.298 102.117 7.349 101.21 8.375 100.32 7.349 99.797 5.298 100.32 3.247"/></g></svg>