<svg xmlns="http://www.w3.org/2000/svg" viewBox="0 0 128 32"><defs><style>.cls-1{fill:#231f20;}.cls-2{fill:#fff;}</style></defs><g id="mouth"><polygon class="cls-1" points="64 23 52.08 25.459 48.717 22.764 42.125 24.892 24.242 22.148 24.242 23.148 26.538 23.407 42.125 25.892 48.321 23.753 51.684 26.473 64 24 64 23"/><polygon class="cls-1" points="64 23 75.92 25.459 79.283 22.764 85.875 24.892 103.758 22.148 103.758 23.148 101.462 23.407 85.875 25.892 79.679 23.753 76.316 26.473 64 24 64 23"/></g><g id="eye"><polygon class="cls-1" points="19.566 4.22 23.918 2.934 29.654 2.984 32.918 4.022 34.154 5.802 34.154 8.225 29.654 7.731 23.967 7.434 18.676 7.582 16.976 7.182 18.176 6.782 19.566 4.22"/><polygon class="cls-1" points="108.434 4.22 104.082 2.934 98.346 2.984 95.082 4.022 93.846 5.802 93.846 8.225 98.346 7.731 104.033 7.434 109.324 7.582 111.024 7.182 109.824 6.782 108.434 4.22"/></g><g id="nose"><polygon class="cls-1" points="64 0 64 3 63.088 2 60.088 0 64 0"/><polygon class="cls-1" points="64 0 64 3 64.912 2 67.912 0 64 0"/></g><g id="puiple"><polygon class="cls-2" points="27.784 3.247 26.894 2.22 25.987 3.247 25.464 5.298 25.987 7.349 26.894 8.375 27.784 7.349 28.308 5.298 27.784 3.247"/><polygon class="cls-2" points="100.216 3.247 101.106 2.22 102.013 3.247 102.536 5.298 102.013 7.349 101.106 8.375 100.216 7.349 99.692 5.298 100.216 3.247"/></g></svg>