<svg xmlns="http://www.w3.org/2000/svg" viewBox="0 0 128 32"><defs><style>.cls-1{fill:#231f20;}.cls-2{fill:#fff;}</style></defs><g id="mouth"><polygon class="cls-1" points="63.999 18.61 54.501 26.324 48.604 21.824 42.126 26.61 32.165 20.17 32.165 21.17 34.066 22.467 42.126 27.61 48.505 22.962 54.341 27.511 64 19.896 63.999 18.61"/><polygon class="cls-1" points="64.018 18.61 73.515 26.324 79.412 21.824 85.89 26.61 95.852 20.17 95.852 21.17 93.951 22.467 85.89 27.61 79.511 22.962 73.676 27.511 64.016 19.896 64.018 18.61"/></g><g id="eye"><polygon class="cls-1" points="22 2.143 25.016 0.61 28.676 0.61 31.198 1.945 32.83 5.407 32.632 8.423 30.703 11.242 26.451 11.984 22.445 11.044 20.368 8.077 20.418 4.813 22 2.143"/><polygon class="cls-1" points="106.016 2.143 103 0.61 99.341 0.61 96.819 1.945 95.187 5.407 95.385 8.423 97.313 11.242 101.566 11.984 105.571 11.044 107.648 8.077 107.599 4.813 106.016 2.143"/></g><g id="nose"><polygon class="cls-1" points="64.008 0 64.008 3 63 2 60 0 64.008 0"/><polygon class="cls-1" points="64.008 0 64.008 3 65.016 2 68.016 0 64.008 0"/></g><g id="puiple"><polygon class="cls-2" points="30.802 2.39 26.846 1.005 22.247 2.736 21.11 6.593 23.038 10.401 26.451 11.143 30.209 10.451 32.187 6.692 30.802 2.39"/><polygon class="cls-2" points="97.214 2.39 101.17 1.005 105.769 2.736 106.907 6.593 104.978 10.401 101.566 11.143 97.808 10.451 95.83 6.692 97.214 2.39"/></g></svg>