<svg xmlns="http://www.w3.org/2000/svg" viewBox="0 0 128 32"><defs><style>.cls-1{fill:#231f20;}.cls-2{fill:#fff;}</style></defs><g id="mouth"><polygon class="cls-1" points="63.999 23 52 26 49 22 42 24 24 17 24 18 26 19 42 25 48 23 51 27 64 24 63.999 23"/><polygon class="cls-1" points="64.018 23 76.016 26 79.016 22 86.016 24 104.016 17 104.016 18 102.016 19 86.016 25 80.016 23 77.016 27 64.016 24 64.018 23"/></g><g id="eye"><polygon class="cls-1" points="27.736 4.071 22.065 2.37 22.194 1.603 28.132 3.33 31.808 4.427 32.833 5.536 29.755 6.923 23.11 9.826 22.771 9.111 31.403 5.194 30.53 4.887 27.736 4.071"/><polygon class="cls-1" points="100.28 4.071 105.951 2.37 105.822 1.603 99.885 3.33 96.209 4.427 95.184 5.536 98.262 6.923 104.906 9.826 105.245 9.111 96.614 5.194 97.486 4.887 100.28 4.071"/></g><g id="nose"><polygon class="cls-1" points="64.008 0 64.008 3 63 2 60 0 64.008 0"/><polygon class="cls-1" points="64.008 0 64.008 3 65.016 2 68.016 0 64.008 0"/></g><g id="puiple"><polygon class="cls-2" points="27.696 3.247 26.807 2.22 25.899 3.247 25.376 5.298 25.899 7.349 26.807 8.375 27.696 7.349 28.22 5.298 27.696 3.247"/><polygon class="cls-2" points="100.32 3.247 101.21 2.22 102.117 3.247 102.641 5.298 102.117 7.349 101.21 8.375 100.32 7.349 99.797 5.298 100.32 3.247"/></g></svg>